<svg width="24" height="24" viewBox="0 0 24 24" fill="none" xmlns="http://www.w3.org/2000/svg">
<path fill-rule="evenodd" clip-rule="evenodd" d="M13.1052 1C12.1942 1 11.4557 1.73596 11.4557 2.64382C11.4557 3.55169 12.1942 4.28765 13.1052 4.28765C14.0162 4.28765 14.7546 3.55169 14.7546 2.64382C14.7546 1.73596 14.0162 1 13.1052 1ZM13.4637 2.64382C13.4637 2.84119 13.3032 3.00118 13.1052 3.00118C12.9071 3.00118 12.7466 2.84119 12.7466 2.64382C12.7466 2.44646 12.9071 2.28647 13.1052 2.28647C13.3032 2.28647 13.4637 2.44646 13.4637 2.64382ZM6.22037 5.28821C4.83409 5.28821 3.71029 6.40816 3.71029 7.78968C3.71029 9.17121 4.83409 10.2912 6.22037 10.2912C7.60665 10.2912 8.73045 9.17121 8.73045 7.78968C8.73045 6.40816 7.60665 5.28821 6.22037 5.28821ZM5.71835 7.78968C5.71835 7.51338 5.94311 7.28939 6.22037 7.28939C6.49763 7.28939 6.72239 7.51338 6.72239 7.78968C6.72239 8.06599 6.49763 8.28998 6.22037 8.28998C5.94311 8.28998 5.71835 8.06599 5.71835 7.78968ZM16.6192 15.9374C16.6192 14.319 17.9357 13.0071 19.5596 13.0071C21.1835 13.0071 22.5 14.319 22.5 15.9374C22.5 17.5557 21.1835 18.8677 19.5596 18.8677C17.9357 18.8677 16.6192 17.5557 16.6192 15.9374ZM19.5596 15.0083C19.0447 15.0083 18.6273 15.4242 18.6273 15.9374C18.6273 16.4505 19.0447 16.8665 19.5596 16.8665C20.0745 16.8665 20.4919 16.4505 20.4919 15.9374C20.4919 15.4242 20.0745 15.0083 19.5596 15.0083ZM21.2279 5.30997C21.2977 5.68817 21.1438 6.07261 20.8323 6.29914L20.8269 6.30319C20.8201 6.30829 20.8075 6.31793 20.7897 6.33203C20.7541 6.36026 20.6982 6.40606 20.6275 6.46864C20.4855 6.59433 20.2874 6.78466 20.0761 7.03312C19.6484 7.53585 19.1979 8.2391 19.0101 9.09686C18.6816 10.597 17.6917 11.4745 16.902 11.9458C15.763 12.6257 14.5244 12.1287 13.8309 11.413L12.9513 10.5052C12.2948 9.82775 11.8941 8.74433 12.361 7.68497C12.7044 6.90596 13.3428 5.83973 14.4818 5.01901C15.6587 4.17095 17.2665 4.11622 18.3767 4.19092C18.9649 4.2305 19.4895 4.31263 19.8662 4.38437C20.0554 4.42041 20.2096 4.45425 20.3184 4.47962C20.3728 4.49231 20.4161 4.50291 20.4469 4.51065L20.4837 4.52003L20.4948 4.52293L20.4985 4.52391L20.5009 4.52455C20.8749 4.62469 21.1579 4.93033 21.2279 5.30997ZM15.6584 6.64066C16.2161 6.23875 17.1719 6.12128 18.1929 6.18441C17.7314 6.81607 17.271 7.65274 17.0482 8.67021C16.8769 9.45274 16.3682 9.9318 15.8702 10.229C15.8161 10.2613 15.7518 10.2761 15.6534 10.2534C15.5433 10.2279 15.403 10.1545 15.2754 10.0228L14.3957 9.11509C14.1478 8.85921 14.1429 8.61835 14.1996 8.48977C14.4525 7.91578 14.9005 7.18682 15.6584 6.64066ZM11.7353 10.2984C11.5465 10.1103 11.2903 10.0048 11.0233 10.0054C10.7563 10.0059 10.5005 10.1124 10.3125 10.3013L2.29239 18.3596C1.2328 19.4242 1.23633 21.1422 2.30027 22.2025C3.3642 23.2628 5.08809 23.2663 6.15637 22.2104L14.2425 14.2178C14.432 14.0305 14.5389 13.7756 14.5395 13.5095C14.54 13.2434 14.4342 12.988 14.2454 12.7999L11.7353 10.2984ZM3.7181 19.7688L11.0283 12.4239L12.1126 13.5045L4.7423 20.7895C4.45913 21.0694 4.00219 21.0685 3.72019 20.7874C3.43817 20.5064 3.43724 20.051 3.7181 19.7688Z" fill="white"/>
</svg>
