<svg width="24" height="24" viewBox="0 0 24 24" fill="none" xmlns="http://www.w3.org/2000/svg">
<path fill-rule="evenodd" clip-rule="evenodd" d="M20.7676 16.2372C20.8423 16.2544 20.917 16.2615 20.9917 16.2615C21.2601 16.2615 21.5225 16.153 21.7143 15.9553C21.9595 15.7017 22.0554 15.3387 21.9686 14.9959L21.1632 11.8369C21.5447 10.9567 21.7436 9.99835 21.7405 9.04203C21.7405 7.73281 21.3772 6.45299 20.693 5.3405C20.0077 4.227 19.0297 3.32951 17.8701 2.7474C16.9073 2.25759 15.8275 2 14.7506 2H14.7325L14.3247 2.00101C12.603 2.09634 10.9832 2.82346 9.76406 4.04852C8.54491 5.27357 7.8213 6.90123 7.72542 8.63132C7.72439 8.65059 7.72439 8.66884 7.72439 8.68709V9.03899C7.72139 10.1292 7.97874 11.2204 8.46619 12.1899C9.04852 13.3601 9.94067 14.3428 11.0478 15.0314C12.16 15.722 13.3912 16.0739 14.7456 16.0841C15.7003 16.0841 16.6561 15.8812 17.529 15.4979L20.7676 16.2372ZM9.74285 9.04203V8.7165C9.81654 7.4955 10.3302 6.34854 11.1911 5.48349C12.058 4.61135 13.2116 4.09415 14.3802 4.02824H14.7486C15.5126 4.02824 16.2776 4.21078 16.9629 4.55963C17.7924 4.97542 18.4878 5.61432 18.9753 6.40736C19.4637 7.19938 19.7221 8.11006 19.7221 9.04508C19.7241 9.81682 19.5424 10.5896 19.1953 11.2792C19.0853 11.4982 19.058 11.7507 19.1186 11.988L19.4826 13.4155C19.5381 13.633 19.3439 13.8321 19.1251 13.7821L17.638 13.4423C17.4099 13.3906 17.1697 13.42 16.9598 13.5265C16.2756 13.8743 15.5338 14.0579 14.7325 14.0559C13.805 14.0559 12.8987 13.7962 12.1105 13.3054C11.3213 12.8156 10.6865 12.1168 10.2697 11.2792C9.92351 10.5896 9.74084 9.81682 9.74285 9.04203Z" fill="white"/>
<path d="M2.30357 21.712C2.49431 21.8986 2.74864 22 3.00902 22C3.08975 22 3.1715 21.9899 3.25123 21.9706L5.83283 21.3276C6.57763 21.6461 7.39914 21.8611 8.19441 21.8104C9.32071 21.8104 10.4238 21.495 11.3826 20.8987C12.3413 20.3024 13.1134 19.4525 13.617 18.4404C13.8663 17.9395 13.6644 17.331 13.1659 17.0795C12.6663 16.83 12.0608 17.0328 11.8125 17.5338C11.4764 18.2092 10.9607 18.7761 10.3208 19.1736C9.681 19.5712 8.94527 19.7811 8.19239 19.7811H8.1823C7.56264 19.7811 6.94196 19.633 6.38891 19.3531C6.17394 19.2426 5.92568 19.2162 5.69154 19.274L4.66257 19.5298C4.51846 19.5656 4.38695 19.4375 4.41905 19.2925L4.6591 18.2082C4.71057 17.978 4.68029 17.7387 4.57533 17.5298C4.29376 16.971 4.14641 16.3453 4.14742 15.7165C4.14843 14.96 4.35734 14.2207 4.75296 13.5788C5.14857 12.9358 5.71273 12.4186 6.38487 12.0809C6.88343 11.8304 7.08628 11.2219 6.837 10.72C6.58874 10.22 5.98219 10.0151 5.48363 10.2666C4.47542 10.7727 3.62868 11.5485 3.03626 12.5119C2.44385 13.4743 2.12998 14.5827 2.12897 15.7125C2.12695 16.5309 2.29448 17.3503 2.61441 18.1017L2.02401 20.7648C1.94832 21.1076 2.05429 21.4666 2.30357 21.712Z" fill="white"/>
</svg>
