<svg width="24" height="24" viewBox="0 0 24 24" fill="none" xmlns="http://www.w3.org/2000/svg">
<path fill-rule="evenodd" clip-rule="evenodd" d="M8.99997 4C6.79083 4 4.99997 5.79086 4.99997 8C4.99997 10.2091 6.79083 12 8.99997 12C11.2091 12 13 10.2091 13 8C13 5.79086 11.2091 4 8.99997 4ZM6.99997 8C6.99997 6.89543 7.8954 6 8.99997 6C10.1045 6 11 6.89543 11 8C11 9.10457 10.1045 10 8.99997 10C7.8954 10 6.99997 9.10457 6.99997 8ZM6.79998 13L6.70739 13H6.70738C6.05344 12.9999 5.60793 12.9998 5.21781 13.0616C3.07835 13.4004 1.4004 15.0784 1.06154 17.2179C0.999751 17.608 0.99984 18.0535 0.99997 18.7074L0.999982 18.8L0.999932 18.8406C0.999673 18.9815 0.999358 19.1535 1.02461 19.3129C1.16015 20.1687 1.83133 20.8399 2.68711 20.9754C2.84652 21.0006 3.01849 21.0003 3.1594 21.0001L3.19998 21H14.8L14.8406 21.0001C14.9815 21.0003 15.1534 21.0006 15.3129 20.9754C16.1686 20.8399 16.8398 20.1687 16.9754 19.3129C17.0006 19.1535 17.0003 18.9815 17 18.8406L17 18.8L17 18.7074V18.7074C17.0001 18.0535 17.0002 17.608 16.9384 17.2179C16.5996 15.0784 14.9216 13.4004 12.7822 13.0616C12.392 12.9998 11.9465 12.9999 11.2926 13H11.2926L11.2 13H6.79998ZM5.53068 15.037C5.74428 15.0031 6.01856 15 6.79998 15H11.2C11.9814 15 12.2557 15.0031 12.4693 15.037C13.753 15.2403 14.7597 16.247 14.963 17.5307C14.9969 17.7443 15 18.0186 15 18.8C15 18.8983 14.9999 18.9521 14.9988 18.9914L14.9986 18.9986L14.9913 18.9989C14.952 18.9999 14.8983 19 14.8 19H3.19998C3.10166 19 3.04792 18.9999 3.00863 18.9989L3.00137 18.9986L3.00115 18.9914C3.00007 18.9521 2.99998 18.8983 2.99998 18.8C2.99998 18.0186 3.00309 17.7443 3.03692 17.5307C3.24023 16.247 4.247 15.2403 5.53068 15.037Z" fill="white"/>
<path d="M22.4738 9.89392C23.0406 9.89392 23.5 10.3416 23.5 10.8939C23.5 11.4211 23.0814 11.853 22.5504 11.8912L22.4738 11.8939H17.5262C16.9594 11.8939 16.5 11.4462 16.5 10.8939C16.5 10.3667 16.9186 9.93484 17.4496 9.89666L17.5262 9.89392H22.4738Z" fill="white"/>
<path d="M21.0261 13.2784C21.0261 13.8451 20.5667 14.3046 19.9999 14.3046C19.459 14.3046 19.0158 13.8859 18.9766 13.355L18.9738 13.2784L18.9738 8.33074C18.9738 7.764 19.4332 7.30457 19.9999 7.30457C20.5409 7.30457 20.9841 7.72318 21.0233 8.25416L21.0261 8.33074L21.0261 13.2784Z" fill="white"/>
</svg>
