<svg width="24" height="24" viewBox="0 0 24 24" fill="none" xmlns="http://www.w3.org/2000/svg">
<path fill-rule="evenodd" clip-rule="evenodd" d="M4.99997 8C4.99997 5.79086 6.79083 4 8.99997 4C11.2091 4 13 5.79086 13 8C13 10.2091 11.2091 12 8.99997 12C6.79083 12 4.99997 10.2091 4.99997 8ZM8.99997 6C7.8954 6 6.99997 6.89543 6.99997 8C6.99997 9.10457 7.8954 10 8.99997 10C10.1045 10 11 9.10457 11 8C11 6.89543 10.1045 6 8.99997 6Z" fill="white"/>
<path fill-rule="evenodd" clip-rule="evenodd" d="M6.70739 13C6.05346 12.9999 5.60792 12.9998 5.21781 13.0616C3.07835 13.4004 1.4004 15.0784 1.06154 17.2179C0.999751 17.608 0.99984 18.0535 0.99997 18.7074L0.999982 18.8L0.999932 18.8406C0.999673 18.9815 0.999358 19.1535 1.02461 19.3129C1.16015 20.1687 1.83133 20.8399 2.68711 20.9754C2.84652 21.0006 3.01849 21.0003 3.1594 21.0001L3.19998 21H14.8L14.8406 21.0001C14.9815 21.0003 15.1534 21.0006 15.3129 20.9754C16.1686 20.8399 16.8398 20.1687 16.9754 19.3129C17.0006 19.1535 17.0003 18.9815 17 18.8406L17 18.8L17 18.7074C17.0001 18.0535 17.0002 17.608 16.9384 17.2179C16.5996 15.0784 14.9216 13.4004 12.7822 13.0616C12.392 12.9998 11.9465 12.9999 11.2926 13H6.70739ZM5.53068 15.037C5.74428 15.0031 6.01856 15 6.79998 15H11.2C11.9814 15 12.2557 15.0031 12.4693 15.037C13.753 15.2403 14.7597 16.247 14.963 17.5307C14.9969 17.7443 15 18.0186 15 18.8C15 18.8983 14.9999 18.9521 14.9988 18.9914L14.9986 18.9986L14.9913 18.9989C14.952 18.9999 14.8983 19 14.8 19H3.19998C3.10166 19 3.04792 18.9999 3.00863 18.9989L3.00137 18.9986L3.00115 18.9914C3.00007 18.9521 2.99998 18.8983 2.99998 18.8C2.99998 18.0186 3.00309 17.7443 3.03692 17.5307C3.24023 16.247 4.247 15.2403 5.53068 15.037Z" fill="white"/>
<path d="M23 18C23 15.2386 20.7614 13 18 13C16.7617 13.0917 16.7617 14.9083 18 15C19.6568 15 21 16.3431 21 18H19C18.4477 18 18 18.4477 18 19C18 19.5523 18.4477 20 19 20H21.0004C22.1056 20 23 19.104 23 18Z" fill="white"/>
<path fill-rule="evenodd" clip-rule="evenodd" d="M17 6C15.3431 6 14 7.34315 14 9C14 10.6569 15.3431 12 17 12C18.6568 12 20 10.6569 20 9C20 7.34315 18.6568 6 17 6ZM16 9C16 8.44772 16.4477 8 17 8C17.5523 8 18 8.44772 18 9C18 9.55228 17.5523 10 17 10C16.4477 10 16 9.55228 16 9Z" fill="white"/>
</svg>
