<svg width="24" height="24" viewBox="0 0 24 24" fill="none" xmlns="http://www.w3.org/2000/svg">
<path fill-rule="evenodd" clip-rule="evenodd" d="M7.58824 2C5.63719 2 4.02472 2.50636 2.75652 3.79993L2.74357 3.81314L2.73112 3.82681C2.21637 4.39224 1.81508 5.02637 1.52904 5.73532C1.37067 6.12152 1.25096 6.52804 1.16583 6.95484C1.05547 7.49899 1 8.08005 1 8.7C1 8.70954 1.00003 8.71907 1.00009 8.72858C1.00003 8.74404 1 8.75951 1 8.775C1 10.5084 1.68759 12.1706 2.90283 13.7158C3.13492 14.0611 3.35545 14.286 3.48941 14.4226L3.49181 14.4251C3.51027 14.4439 3.51744 14.453 3.53751 14.4785C3.55146 14.4961 3.57163 14.5217 3.60611 14.5639L3.60688 14.5649C3.63345 14.5974 3.70422 14.684 3.80051 14.7649C3.82338 14.7841 3.85649 14.8106 3.89927 14.8394L10.33 21.3251L10.3323 21.3273C10.7178 21.7196 11.2604 22 11.9265 22C11.9512 22 11.9758 21.9995 12 21.9986C12.0242 21.9995 12.0488 22 12.0735 22C12.7396 22 13.2822 21.7196 13.6677 21.3273L13.67 21.3251L20.1007 14.8394C20.1435 14.8106 20.1766 14.7841 20.1995 14.7649C20.2958 14.684 20.3665 14.5974 20.3931 14.5649L20.3939 14.5639C20.4284 14.5217 20.4485 14.4962 20.4625 14.4785C20.4825 14.453 20.4897 14.4439 20.5082 14.4251L20.5106 14.4226C20.6446 14.286 20.8651 14.0611 21.0972 13.7158C22.3124 12.1706 23 10.5084 23 8.775C23 8.75951 23 8.74404 22.9999 8.72858C23 8.71907 23 8.70954 23 8.7C23 8.08005 22.9445 7.499 22.8342 6.95484C22.749 6.52803 22.6293 6.12151 22.471 5.7353C22.1849 5.02636 21.7836 4.39224 21.2689 3.82681L21.2564 3.81314L21.2435 3.79993C19.9753 2.50636 18.3628 2 16.4118 2C15.815 2 15.1776 2.08495 14.5271 2.35801C13.9198 2.54244 13.4023 2.81217 12.9083 3.14807C12.5609 3.38431 12.274 3.5939 12 3.83906C11.7261 3.5939 11.4391 3.38431 11.0917 3.14807C10.5977 2.81217 10.0802 2.54244 9.47288 2.35801C8.82236 2.08495 8.18502 2 7.58824 2ZM10.9025 5.55682C10.8498 5.51634 10.7979 5.47608 10.7466 5.43625C10.4925 5.2392 10.2521 5.05268 10.0074 4.90294L9.98694 4.89042L9.9671 4.87693C9.59511 4.62397 9.24828 4.45039 8.85256 4.33506C8.30954 4.17681 7.93489 4.075 7.58823 4.075C6.12059 4.075 4.98704 4.52294 4.17172 5.28833C3.83099 5.63902 3.56527 6.03786 3.37365 6.50913C3.26446 6.78421 3.1778 7.08112 3.11554 7.40325C3.04088 7.79874 3.00251 8.23687 3.00012 8.72607C3.00378 9.12638 3.09152 9.48199 3.22431 10.0201L3.26128 10.1703C3.38847 10.6193 3.57542 11.0559 3.74429 11.343C3.96825 11.7237 4.15748 12.0429 4.4045 12.3579L4.44572 12.4104L4.47958 12.468C4.4956 12.4952 4.51156 12.5213 4.52744 12.5463C4.74038 12.8121 4.97677 13.0796 5.23734 13.3484L11.7582 19.9249C11.7905 19.9578 11.8175 19.9747 11.8377 19.9837C11.8552 19.9915 11.8803 19.9993 11.9212 20C11.9437 20 11.9652 20.0008 11.9858 20.0023C11.9906 20.0027 11.9955 20.002 12 20C12.0202 19.991 12.0472 19.9742 12.0795 19.9412L18.8596 13.2472C19.0822 13.0125 19.2863 12.7788 19.4726 12.5463C19.4884 12.5213 19.5044 12.4952 19.5204 12.468L19.5543 12.4104L19.5955 12.3579C19.8425 12.0429 20.0318 11.7237 20.2557 11.343C20.4246 11.0559 20.6115 10.6193 20.7387 10.1703L20.7757 10.0201C20.9085 9.48199 20.9962 9.12638 20.9999 8.72607C20.9975 8.23687 20.9591 7.79873 20.8845 7.40324C20.8222 7.08112 20.7355 6.78423 20.6264 6.50915C20.4347 6.03787 20.169 5.63903 19.8283 5.28833C19.013 4.52294 17.8794 4.075 16.4118 4.075C16.0651 4.075 15.6905 4.17681 15.1474 4.33506C14.7517 4.45039 14.4049 4.62397 14.0329 4.87693L14.0131 4.89042L13.9926 4.90294C13.7479 5.05268 13.5075 5.2392 13.2534 5.43625C13.2021 5.47608 13.1502 5.51635 13.0975 5.55683C12.9942 5.65489 12.8979 5.72849 12.8378 5.77439L12.8282 5.78174C12.7505 5.84115 12.7311 5.8577 12.7141 5.87507L12 6.60343L11.2859 5.87507C11.2689 5.8577 11.2495 5.84115 11.1718 5.78174L11.1622 5.77439C11.1021 5.72849 11.0058 5.65489 10.9025 5.55682Z" fill="white"/>
</svg>
