<svg width="24" height="24" viewBox="0 0 24 24" fill="none" xmlns="http://www.w3.org/2000/svg">
<path fill-rule="evenodd" clip-rule="evenodd" d="M9.59109 1.69776C11.0911 0.873045 12.9088 0.873046 14.4089 1.69776L19.8374 4.68234C21.4356 5.56098 22.4286 7.24006 22.4286 9.06381V14.8625C22.4286 16.667 21.4563 18.3314 19.8846 19.2178L14.456 22.2791C12.9315 23.1388 11.0685 23.1388 9.54397 22.2791L4.1154 19.2178C2.54365 18.3314 1.57141 16.667 1.57141 14.8625V9.06381C1.57141 7.24007 2.56438 5.56098 4.16252 4.68234L9.59109 1.69776ZM13.4453 3.45035C12.5453 2.95552 11.4547 2.95552 10.5546 3.45034L5.12608 6.43493C4.1672 6.96211 3.57141 7.96956 3.57141 9.06381V14.8625C3.57141 15.9452 4.15476 16.9439 5.0978 17.4757L10.5264 20.537C11.4411 21.0528 12.5589 21.0528 13.4736 20.537L18.9022 17.4757C19.8452 16.9439 20.4286 15.9452 20.4286 14.8625V9.06381C20.4286 7.96956 19.8328 6.96211 18.8739 6.43493L13.4453 3.45035ZM8.85726 12.0001C8.85726 10.2643 10.2644 8.8572 12.0001 8.8572C13.7359 8.8572 15.143 10.2643 15.143 12.0001C15.143 13.7358 13.7359 15.1429 12.0001 15.1429C10.2644 15.1429 8.85726 13.7358 8.85726 12.0001ZM12.0001 10.8572C11.3689 10.8572 10.8573 11.3689 10.8573 12.0001C10.8573 12.6312 11.3689 13.1429 12.0001 13.1429C12.6313 13.1429 13.143 12.6312 13.143 12.0001C13.143 11.3689 12.6313 10.8572 12.0001 10.8572Z" fill="white"/>
</svg>
