<svg width="42" height="100" viewBox="0 0 42 100" fill="none" xmlns="http://www.w3.org/2000/svg">
<path d="M32.8113 13.354C29.7396 20.4032 23.0668 21.2742 23.0668 21.2742C23.0668 21.2742 19.4541 14.9634 22.4492 8.09083C25.4496 1.21464 33.2124 6.46878e-08 33.2124 6.46878e-08C33.2124 6.46878e-08 35.8876 6.30574 32.8113 13.354Z" fill="white" fill-opacity="0.15"/>
<path d="M20.919 39.0091C20.919 39.0091 28.1314 39.8018 33.2319 34.3301C38.3316 28.863 36.358 21.2903 36.358 21.2903C36.358 21.2903 29.5318 21.3521 24.2944 26.9652C19.0623 32.5746 20.919 39.0091 20.919 39.0091Z" fill="white" fill-opacity="0.15"/>
<path d="M20.031 47.6133C15.5972 53.8819 18.2849 60.0626 18.2849 60.0626C18.2849 60.0626 25.5342 59.9198 29.8509 53.8152C34.1644 47.7006 31.2078 40.4074 31.2078 40.4074C31.2078 40.4074 24.4649 41.3446 20.031 47.6133Z" fill="white" fill-opacity="0.15"/>
<path d="M24.4999 64.482C28.3054 57.8139 34.9233 56.2448 34.9233 56.2448C34.9233 56.2448 38.5537 63.2601 34.8463 69.7651C31.1344 76.2692 23.9504 77.0834 23.9504 77.0834C23.9504 77.0834 20.6922 71.1637 24.4999 64.482Z" fill="white" fill-opacity="0.15"/>
<path d="M33.4828 94.9589C33.4828 94.9589 40.0811 92.1267 41.7029 84.7799C43.3208 77.4277 37.8039 71.6728 37.8039 71.6728C37.8039 71.6728 31.9713 75.0697 30.3084 82.6093C28.6508 90.1452 33.4828 94.9589 33.4828 94.9589Z" fill="white" fill-opacity="0.15"/>
<path d="M15.6207 34.538C15.6207 34.538 20.555 30.1108 19.1338 22.4298C17.7028 14.7516 12.0182 10.8832 12.0182 10.8832C12.0182 10.8832 6.38496 16.2053 7.77766 23.6892C9.16501 31.1769 15.6207 34.538 15.6207 34.538Z" fill="white" fill-opacity="0.15"/>
<path d="M12.9638 50.3268C12.9638 50.3268 16.3292 44.6221 12.6968 37.6587C9.056 30.6891 2.51408 28.6309 2.51408 28.6309C2.51408 28.6309 -1.25196 35.3979 2.29089 42.1904C5.83297 48.9873 12.9638 50.3268 12.9638 50.3268Z" fill="white" fill-opacity="0.15"/>
<path d="M12.3616 55.1358C17.4437 61.1564 15.4587 67.4862 15.4587 67.4862C15.4587 67.4862 8.24021 67.7395 3.27444 61.8714C-1.68138 56.0006 0.460333 48.5398 0.460333 48.5398C0.460333 48.5398 7.27112 49.1091 12.3616 55.1358Z" fill="white" fill-opacity="0.15"/>
<path d="M21.1478 82.3464C21.1478 82.3464 21.1081 75.6789 14.4508 71.4339C7.79041 67.1789 1.1714 68.6797 1.1714 68.6797C1.1714 68.6797 1.42288 76.4808 7.90735 80.6283C14.3941 84.7623 21.1478 82.3464 21.1478 82.3464Z" fill="white" fill-opacity="0.15"/>
<path d="M10.1946 87.3847C10.1946 87.3847 16.5746 85.1101 23.6793 88.5493C30.7849 91.9841 31.625 98.6174 31.625 98.6174C31.625 98.6174 25.2304 101.825 18.3008 98.4694C11.3803 95.1157 10.1946 87.3847 10.1946 87.3847Z" fill="white" fill-opacity="0.15"/>
</svg>
