<svg width="42" height="100" viewBox="0 0 42 100" fill="none" xmlns="http://www.w3.org/2000/svg">
<path d="M9.18868 13.354C12.2604 20.4032 18.9332 21.2742 18.9332 21.2742C18.9332 21.2742 22.5459 14.9634 19.5508 8.09083C16.5504 1.21464 8.78759 0 8.78759 0C8.78759 0 6.11235 6.30574 9.18868 13.354Z" fill="white" fill-opacity="0.15"/>
<path d="M21.081 39.0091C21.081 39.0091 13.8686 39.8018 8.7681 34.3301C3.66837 28.863 5.64197 21.2903 5.64197 21.2903C5.64197 21.2903 12.4682 21.3521 17.7056 26.9652C22.9377 32.5746 21.081 39.0091 21.081 39.0091Z" fill="white" fill-opacity="0.15"/>
<path d="M21.969 47.6133C26.4028 53.8819 23.7151 60.0626 23.7151 60.0626C23.7151 60.0626 16.4658 59.9198 12.1491 53.8152C7.83559 47.7006 10.7922 40.4074 10.7922 40.4074C10.7922 40.4074 17.5351 41.3446 21.969 47.6133Z" fill="white" fill-opacity="0.15"/>
<path d="M17.5001 64.482C13.6946 57.8139 7.07668 56.2448 7.07668 56.2448C7.07668 56.2448 3.44629 63.2601 7.15366 69.7651C10.8657 76.2692 18.0496 77.0834 18.0496 77.0834C18.0496 77.0834 21.3078 71.1637 17.5001 64.482Z" fill="white" fill-opacity="0.15"/>
<path d="M8.51718 94.9589C8.51718 94.9589 1.91886 92.1267 0.297108 84.7799C-1.32075 77.4277 4.19606 71.6728 4.19606 71.6728C4.19606 71.6728 10.0287 75.0697 11.6917 82.6093C13.3492 90.1452 8.51718 94.9589 8.51718 94.9589Z" fill="white" fill-opacity="0.15"/>
<path d="M26.3793 34.538C26.3793 34.538 21.445 30.1108 22.8662 22.4298C24.2972 14.7516 29.9818 10.8832 29.9818 10.8832C29.9818 10.8832 35.615 16.2053 34.2223 23.6892C32.835 31.1769 26.3793 34.538 26.3793 34.538Z" fill="white" fill-opacity="0.15"/>
<path d="M29.0362 50.3268C29.0362 50.3268 25.6708 44.6221 29.3032 37.6587C32.944 30.6891 39.4859 28.6309 39.4859 28.6309C39.4859 28.6309 43.252 35.3979 39.7091 42.1904C36.167 48.9873 29.0362 50.3268 29.0362 50.3268Z" fill="white" fill-opacity="0.15"/>
<path d="M29.6384 55.1358C24.5563 61.1564 26.5413 67.4862 26.5413 67.4862C26.5413 67.4862 33.7598 67.7395 38.7256 61.8714C43.6814 56.0006 41.5397 48.5398 41.5397 48.5398C41.5397 48.5398 34.7289 49.1091 29.6384 55.1358Z" fill="white" fill-opacity="0.15"/>
<path d="M20.8522 82.3464C20.8522 82.3464 20.8919 75.6789 27.5492 71.4339C34.2096 67.1789 40.8286 68.6797 40.8286 68.6797C40.8286 68.6797 40.5771 76.4808 34.0927 80.6283C27.6059 84.7623 20.8522 82.3464 20.8522 82.3464Z" fill="white" fill-opacity="0.15"/>
<path d="M31.8054 87.3847C31.8054 87.3847 25.4254 85.1101 18.3207 88.5493C11.2151 91.9841 10.375 98.6174 10.375 98.6174C10.375 98.6174 16.7696 101.825 23.6992 98.4694C30.6197 95.1157 31.8054 87.3847 31.8054 87.3847Z" fill="white" fill-opacity="0.15"/>
</svg>
